<svg width="70" height="70" viewBox="0 0 70 70" fill="none" xmlns="http://www.w3.org/2000/svg">
<circle cx="34.2144" cy="37.7143" r="14.2857" stroke="#7DB4F9" stroke-width="5"/>
<path d="M48.9138 51.9409L31.9057 37.7621L36.5498 37.9286L51.1638 49.2594L48.9138 51.9409Z" fill="#7DB4F9"/>
<path d="M31.7852 19.4286H36.6423V37.7143H31.7852V19.4286Z" fill="#F56C6C"/>
<rect x="24.1426" y="19.4286" width="3.71429" height="20.1429" transform="rotate(-90 24.1426 19.4286)" fill="#F56C6C"/>
<path d="M41.2966 43.4853C40.188 44.9695 38.6608 46.0882 36.9113 46.6976C35.1618 47.3069 33.2701 47.3791 31.4793 46.9047C29.6885 46.4303 28.0806 45.4312 26.8622 44.0357C25.6438 42.6401 24.8706 40.9121 24.6422 39.0737C24.4137 37.2353 24.7404 35.3706 25.5801 33.7193C26.4199 32.068 27.7344 30.7057 29.3546 29.8074C30.9748 28.9092 32.8267 28.5161 34.6721 28.6787C36.5175 28.8413 38.2721 29.5522 39.7102 30.7199L36.6075 34.5411C35.9317 33.9924 35.1072 33.6583 34.24 33.5819C33.3728 33.5055 32.5026 33.6902 31.7413 34.1123C30.9799 34.5344 30.3622 35.1746 29.9676 35.9505C29.5729 36.7265 29.4194 37.6028 29.5268 38.4667C29.6341 39.3306 29.9974 40.1426 30.57 40.7984C31.1425 41.4542 31.8982 41.9237 32.7397 42.1466C33.5812 42.3695 34.4702 42.3356 35.2923 42.0493C36.1144 41.763 36.832 41.2372 37.353 40.5398L41.2966 43.4853Z" fill="#2A374E"/>
<rect x="52.2139" y="46.6429" width="3.57143" height="3.57143" rx="1.78571" fill="#F56C6C"/>
</svg>
